<?xml version="1.0" standalone="no"?><!DOCTYPE svg PUBLIC "-//W3C//DTD SVG 1.1//EN" "http://www.w3.org/Graphics/SVG/1.1/DTD/svg11.dtd"><svg t="1684942571818" class="icon" viewBox="0 0 1024 1024" version="1.1" xmlns="http://www.w3.org/2000/svg" p-id="9223" width="16" height="16" xmlns:xlink="http://www.w3.org/1999/xlink"><path d="M844.8 409.6h-665.6v100.7616a25.6 25.6 0 0 1-51.2 0V256A76.8 76.8 0 0 1 204.8 179.2h51.2v51.2H204.8a25.6 25.6 0 0 0-25.6 25.6v102.4h665.6V256a25.6 25.6 0 0 0-25.6-25.6h-51.2v-51.2h51.2A76.8 76.8 0 0 1 896 256v563.2a76.8 76.8 0 0 1-76.8 76.8H204.8A76.8 76.8 0 0 1 128 819.2v-181.6576a25.6 25.6 0 0 1 51.2 0V819.2a25.6 25.6 0 0 0 25.6 25.6h614.4a25.6 25.6 0 0 0 25.6-25.6V409.6zM614.4 179.2v51.2H409.6v-51.2h204.8zM332.8 512h51.2a25.6 25.6 0 0 1 0 51.2h-51.2a25.6 25.6 0 0 1 0-51.2z m307.2 0h51.2a25.6 25.6 0 0 1 0 51.2h-51.2a25.6 25.6 0 0 1 0-51.2z m-153.6 0h51.2a25.6 25.6 0 0 1 0 51.2h-51.2a25.6 25.6 0 0 1 0-51.2z m-153.6 153.6h51.2a25.6 25.6 0 0 1 0 51.2h-51.2a25.6 25.6 0 0 1 0-51.2z m307.2 0h51.2a25.6 25.6 0 0 1 0 51.2h-51.2a25.6 25.6 0 0 1 0-51.2z m-153.6 0h51.2a25.6 25.6 0 0 1 0 51.2h-51.2a25.6 25.6 0 0 1 0-51.2z m-153.6-563.2a25.6 25.6 0 0 1 25.6 25.6v153.6a25.6 25.6 0 0 1-51.2 0v-153.6a25.6 25.6 0 0 1 25.6-25.6z m358.4 0a25.6 25.6 0 0 1 25.6 25.6v153.6a25.6 25.6 0 0 1-51.2 0v-153.6a25.6 25.6 0 0 1 25.6-25.6z" fill="#707070" p-id="9224"></path></svg>